HIERARCHY
ROOT joint_Root
{
	OFFSET 0.0 0.0 0.0
	CHANNELS 6 Xposition Yposition Zposition Zrotation Xrotation Yrotation 
	JOINT Hips
	{
		OFFSET -17.1583 93.1646 452.98
		CHANNELS 6 Xposition Yposition Zposition Zrotation Xrotation Yrotation 
		JOINT Spine
		{
			OFFSET 15.7357 0.0 0.0
			CHANNELS 6 Xposition Yposition Zposition Zrotation Xrotation Yrotation 
			JOINT Chest
			{
				OFFSET 8.98455 -0.406207 0.0
				CHANNELS 6 Xposition Yposition Zposition Zrotation Xrotation Yrotation 
				JOINT Neck
				{
					OFFSET 16.3773 0.0 0.0
					CHANNELS 6 Xposition Yposition Zposition Zrotation Xrotation Yrotation 
					JOINT Head
					{
						OFFSET 6.45672 0.0 0.0
						CHANNELS 6 Xposition Yposition Zposition Zrotation Xrotation Yrotation 
						End Site
						{
							OFFSET 0.0 0.0 0.0
						}
					}
				}
				JOINT Shoulder_L
				{
					OFFSET 12.9942 -0.242716 4.98039
					CHANNELS 6 Xposition Yposition Zposition Zrotation Xrotation Yrotation 
					JOINT UpperArm_L
					{
						OFFSET 5.34809 0.0 0.0
						CHANNELS 6 Xposition Yposition Zposition Zrotation Xrotation Yrotation 
						JOINT LowerArm_L
						{
							OFFSET 24.3286 1.87007e-05 0.0
							CHANNELS 6 Xposition Yposition Zposition Zrotation Xrotation Yrotation 
							JOINT Hand_L
							{
								OFFSET 22.2916 0.0 0.0
								CHANNELS 6 Xposition Yposition Zposition Zrotation Xrotation Yrotation 
								End Site
								{
									OFFSET 0.0 0.0 0.0
								}
							}
						}
					}
				}
				JOINT Shoulder_R
				{
					OFFSET 12.9945 -0.242716 -4.98039
					CHANNELS 6 Xposition Yposition Zposition Zrotation Xrotation Yrotation 
					JOINT UpperArm_R
					{
						OFFSET -5.34813 0.0 0.0
						CHANNELS 6 Xposition Yposition Zposition Zrotation Xrotation Yrotation 
						JOINT LowerArm_R
						{
							OFFSET -24.3289 0.000322201 0.0
							CHANNELS 6 Xposition Yposition Zposition Zrotation Xrotation Yrotation 
							JOINT Hand_R
							{
								OFFSET -22.2915 -0.000108084 0.0
								CHANNELS 6 Xposition Yposition Zposition Zrotation Xrotation Yrotation 
								End Site
								{
									OFFSET 0.0 0.0 0.0
								}
							}
						}
					}
				}
			}
		}
		JOINT UpperLeg_L
		{
			OFFSET -2.19248 -6.46944 0.0
			CHANNELS 6 Xposition Yposition Zposition Zrotation Xrotation Yrotation 
			JOINT LowerLeg_L
			{
				OFFSET 39.0811 0.0 -1.23785e-05
				CHANNELS 6 Xposition Yposition Zposition Zrotation Xrotation Yrotation 
				JOINT Foot_L
				{
					OFFSET 40.9854 0.0 -1.26872e-05
					CHANNELS 6 Xposition Yposition Zposition Zrotation Xrotation Yrotation 
					JOINT Toes_L
					{
						OFFSET 11.7543 0.0 0.0
						CHANNELS 6 Xposition Yposition Zposition Zrotation Xrotation Yrotation 
						End Site
						{
							OFFSET 0.0 0.0 0.0
						}
					}
				}
			}
		}
		JOINT UpperLeg_R
		{
			OFFSET -2.19251 6.46944 0.0
			CHANNELS 6 Xposition Yposition Zposition Zrotation Xrotation Yrotation 
			JOINT LowerLeg_R
			{
				OFFSET -39.0811 -0.00228153 -0.0401928
				CHANNELS 6 Xposition Yposition Zposition Zrotation Xrotation Yrotation 
				JOINT Foot_R
				{
					OFFSET -40.9854 0.0 0.0
					CHANNELS 6 Xposition Yposition Zposition Zrotation Xrotation Yrotation 
					JOINT Toes_R
					{
						OFFSET -11.7543 0.0 0.0
						CHANNELS 6 Xposition Yposition Zposition Zrotation Xrotation Yrotation 
						End Site
						{
							OFFSET 0.0 0.0 0.0
						}
					}
				}
			}
		}
	}
}
MOTION
Frames:	8
Frame Time:	0.0333333
0.000000 0.000000 0.000000 0.000000 0.000000 -0.000000 0.030396 93.408900 0.475166 88.269300 2.279090 -1.652630 15.735700 0.000005 -0.000001 60.032100 87.920100 -54.662600 8.984550 -0.406207 -0.000000 -4.018470 -2.627730 10.653700 16.377300 -0.000001 -0.000001 -1.892390 2.441770 1.562170 6.456720 -0.000001 -0.000000 2.666440 0.773313 20.812500 12.994200 -0.242716 4.980390 -88.584000 -2.748010 -62.724300 5.348090 -0.000007 -0.000001 -49.573400 -57.651900 -110.670000 24.328600 0.000019 0.000005 23.845300 36.436000 -36.654700 22.291600 -0.000001 0.000005 52.223200 4.905120 9.276470 12.994500 -0.242716 -4.980390 89.038500 2.999840 -72.218600 -5.348130 -0.000001 -0.000004 -67.791000 2.586700 -3.868700 -24.328900 0.000322 -0.000009 0.109372 0.383250 -16.073900 -22.291500 -0.000108 -0.000004 8.588820 5.225470 2.072350 -2.192480 -6.469440 -0.000000 -174.149000 -2.913930 -1.629330 39.081100 -0.000007 -0.000012 0.023105 -0.109906 11.872500 40.985400 -0.000006 -0.000013 -1.060530 12.099100 -68.112100 11.754300 -0.000000 0.000003 -0.000269 0.172036 -9.598870 -2.192510 6.469440 -0.000001 176.870000 8.382230 -177.854000 -39.081100 -0.002282 -0.040193 0.002132 0.012183 5.691730 -40.985400 0.000008 0.000006 -9.585770 5.573990 -63.666200 -11.754300 -0.000006 -0.000006 -0.010780 0.277046 -5.316130
0.000000 0.000000 0.000000 0.000000 0.000000 -0.000000 0.024394 93.401500 0.503730 88.354100 2.429420 -1.585760 15.735700 0.000005 -0.000001 59.532700 87.886100 -54.096700 8.984550 -0.406207 -0.000000 -3.972780 -2.698160 10.785300 16.377300 -0.000001 -0.000001 -1.952710 2.289150 1.871340 6.456720 -0.000001 -0.000000 2.609390 0.787757 20.799300 12.994200 -0.242716 4.980390 -88.595800 -2.720440 -62.685500 5.348090 -0.000007 -0.000001 -47.905900 -57.299400 -107.443000 24.328600 0.000019 0.000005 17.466700 33.107800 -29.942700 22.291600 -0.000001 0.000005 50.758800 4.855810 10.248200 12.994500 -0.242716 -4.980390 89.036600 2.996200 -72.166900 -5.348130 -0.000001 -0.000004 -67.976900 2.917210 -3.768960 -24.328900 0.000322 -0.000009 0.156217 0.560398 -15.676600 -22.291500 -0.000108 -0.000004 8.385460 5.223010 2.135570 -2.192480 -6.469440 -0.000000 -174.211000 -2.829120 -1.524330 39.081100 -0.000007 -0.000012 0.022507 -0.107794 11.793800 40.985400 -0.000006 -0.000013 -1.054820 12.232200 -68.057000 11.754300 -0.000000 0.000003 -0.000212 0.171115 -9.636300 -2.192510 6.469440 -0.000001 176.796000 8.424410 -177.897000 -39.081100 -0.002282 -0.040193 0.001715 0.015477 6.012820 -40.985400 0.000008 0.000006 -9.484850 5.506470 -63.928800 -11.754300 -0.000006 -0.000006 -0.010962 0.278354 -5.262570
0.000000 0.000000 0.000000 0.000000 0.000000 -0.000000 -0.008288 93.390100 0.550079 88.360300 2.619680 -1.459600 15.735700 0.000005 -0.000001 59.270500 87.854200 -53.737400 8.984550 -0.406207 -0.000000 -3.921920 -2.754890 10.978700 16.377300 -0.000001 -0.000001 -1.955800 2.014690 2.245020 6.456720 -0.000001 -0.000000 2.546010 0.662807 20.847200 12.994200 -0.242716 4.980390 -88.581500 -2.748730 -62.690600 5.348090 -0.000007 -0.000001 -45.335400 -56.956300 -102.786000 24.328600 0.000019 0.000005 12.225900 30.028000 -23.410300 22.291600 -0.000001 0.000005 49.176000 4.817030 10.996700 12.994500 -0.242716 -4.980390 89.028800 3.003820 -72.074400 -5.348130 -0.000001 -0.000004 -68.049900 2.989690 -3.573730 -24.328900 0.000322 -0.000009 0.179693 0.658072 -15.358200 -22.291500 -0.000108 -0.000004 8.233810 5.222470 2.149510 -2.192480 -6.469440 -0.000000 -174.164000 -2.939500 -1.444390 39.081100 -0.000007 -0.000012 0.021635 -0.102807 11.884200 40.985400 -0.000006 -0.000013 -1.043030 12.478900 -68.108700 11.754300 -0.000000 0.000003 -0.000346 0.173260 -9.549170 -2.192510 6.469440 -0.000001 176.827000 8.324220 -177.777000 -39.081100 -0.002282 -0.040193 0.001331 0.018731 6.138000 -40.985400 0.000008 0.000006 -9.369900 5.228900 -64.073900 -11.754300 -0.000006 -0.000006 -0.010828 0.277395 -5.301820
0.000000 0.000000 0.000000 0.000000 0.000000 -0.000000 -0.039614 93.386000 0.592593 88.412800 2.860010 -1.437160 15.735700 0.000005 -0.000001 58.294600 87.867200 -52.667300 8.984550 -0.406207 -0.000000 -3.976100 -2.815820 11.164000 16.377300 -0.000001 -0.000001 -1.977370 1.644080 2.741960 6.456720 -0.000001 -0.000000 2.594410 0.509310 20.805900 12.994200 -0.242716 4.980390 -88.538800 -2.827850 -62.659200 5.348090 -0.000007 -0.000001 -41.992000 -56.318600 -96.815900 24.328600 0.000019 0.000005 8.159630 26.991600 -17.530900 22.291600 -0.000001 0.000005 45.610000 4.763230 12.011100 12.994500 -0.242716 -4.980390 89.019300 3.024250 -72.024400 -5.348130 -0.000001 -0.000004 -68.004900 2.782210 -3.248540 -24.328900 0.000322 -0.000009 0.178607 0.661003 -15.205700 -22.291500 -0.000108 -0.000004 8.333080 5.220300 2.204960 -2.192480 -6.469440 -0.000000 -174.181000 -2.785010 -1.396040 39.081100 -0.000007 -0.000012 0.021319 -0.101983 11.807600 40.985400 -0.000006 -0.000013 -1.061080 12.574000 -68.068800 11.754300 -0.000000 0.000003 -0.000225 0.171326 -9.627710 -2.192510 6.469440 -0.000001 176.807000 8.468750 -177.761000 -39.081100 -0.002282 -0.040193 0.001182 0.019688 6.270840 -40.985400 0.000008 0.000006 -9.342730 5.113380 -64.202900 -11.754300 -0.000006 -0.000006 -0.010845 0.277514 -5.296970
0.000000 0.000000 0.000000 0.000000 0.000000 -0.000000 -0.087378 93.376400 0.652718 88.452600 3.100520 -1.382570 15.735700 0.000005 -0.000001 57.583200 87.886900 -51.868200 8.984550 -0.406207 -0.000000 -4.032840 -2.851310 11.337400 16.377300 -0.000001 -0.000001 -1.979790 1.248960 3.328860 6.456720 -0.000001 -0.000000 2.571890 0.354428 20.779100 12.994200 -0.242716 4.980390 -88.507400 -2.882960 -62.611900 5.348090 -0.000007 -0.000001 -39.669700 -55.093400 -91.363800 24.328600 0.000019 0.000005 5.186290 24.677600 -12.263600 22.291600 -0.000001 0.000005 40.757900 4.699820 13.166600 12.994500 -0.242716 -4.980390 89.018700 3.010540 -71.937900 -5.348130 -0.000001 -0.000004 -67.909000 2.435140 -2.992930 -24.328900 0.000322 -0.000009 0.218556 0.826312 -14.883700 -22.291500 -0.000108 -0.000004 8.316640 5.222380 2.151820 -2.192480 -6.469440 -0.000000 -174.161000 -2.722340 -1.325030 39.081100 -0.000007 -0.000012 0.020576 -0.098652 11.781500 40.985400 -0.000006 -0.000013 -1.079550 12.751000 -68.081000 11.754300 -0.000000 0.000003 -0.000297 0.172480 -9.580840 -2.192510 6.469440 -0.000001 176.808000 8.580840 -177.702000 -39.081100 -0.002282 -0.040193 0.000937 0.021416 6.414930 -40.985400 0.000008 0.000006 -9.222720 4.980370 -64.366600 -11.754300 -0.000006 -0.000006 -0.010679 0.276311 -5.346190
0.000000 0.000000 0.000000 0.000000 0.000000 -0.000000 -0.132536 93.366900 0.707527 88.499500 3.355630 -1.318410 15.735700 0.000005 -0.000001 56.993300 87.901100 -51.208900 8.984550 -0.406207 -0.000000 -4.076300 -2.881730 11.474400 16.377300 -0.000001 -0.000001 -2.076660 0.739900 4.080220 6.456720 -0.000001 -0.000000 2.603480 0.254203 20.639800 12.994200 -0.242716 4.980390 -88.437000 -3.015310 -62.582700 5.348090 -0.000007 -0.000001 -38.725200 -53.521800 -86.435800 24.328600 0.000019 0.000005 3.135080 22.482900 -8.149980 22.291600 -0.000001 0.000005 35.429500 4.607100 14.798700 12.994500 -0.242716 -4.980390 89.033900 2.952240 -71.870500 -5.348130 -0.000001 -0.000004 -67.768600 2.241330 -2.779250 -24.328900 0.000322 -0.000009 0.176586 0.684339 -14.551600 -22.291500 -0.000108 -0.000004 8.194760 5.219540 2.224530 -2.192480 -6.469440 -0.000000 -174.148000 -2.690550 -1.254980 39.081100 -0.000007 -0.000012 0.019618 -0.094322 11.749900 40.985400 -0.000006 -0.000013 -1.090870 12.975200 -68.038600 11.754300 -0.000000 0.000003 -0.000236 0.171510 -9.620270 -2.192510 6.469440 -0.000001 176.803000 8.627320 -177.660000 -39.081100 -0.002282 -0.040193 0.000658 0.023211 6.601800 -40.985400 0.000008 0.000006 -9.182430 4.823760 -64.529700 -11.754300 -0.000006 -0.000006 -0.010744 0.276780 -5.327010
0.000000 0.000000 0.000000 0.000000 0.000000 -0.000000 -0.176058 93.352600 0.746551 88.529800 3.535160 -1.326310 15.735700 0.000005 -0.000001 56.564500 87.962200 -50.743900 8.984550 -0.406207 -0.000000 -4.195930 -2.850380 11.545400 16.377300 -0.000001 -0.000001 -2.235450 0.159684 5.016040 6.456720 -0.000001 -0.000000 2.721990 0.227472 20.474500 12.994200 -0.242716 4.980390 -88.395200 -3.109580 -62.684500 5.348090 -0.000007 -0.000001 -37.984100 -51.853100 -81.643800 24.328600 0.000019 0.000005 1.539280 20.874000 -4.312330 22.291600 -0.000001 0.000005 30.495800 4.494670 16.696700 12.994500 -0.242716 -4.980390 89.038800 2.918680 -71.763400 -5.348130 -0.000001 -0.000004 -67.585500 2.002250 -2.603370 -24.328900 0.000322 -0.000009 0.208226 0.830786 -14.139100 -22.291500 -0.000108 -0.000004 8.024880 5.218330 2.255500 -2.192480 -6.469440 -0.000000 -174.124000 -2.703450 -1.301740 39.081100 -0.000007 -0.000012 0.018871 -0.090211 11.815400 40.985400 -0.000006 -0.000013 -1.096750 13.172800 -68.049600 11.754300 -0.000000 0.000003 -0.000304 0.172599 -9.576030 -2.192510 6.469440 -0.000001 176.845000 8.582500 -177.761000 -39.081100 -0.002282 -0.040193 0.000578 0.022860 6.899680 -40.985400 0.000008 0.000006 -8.952000 4.601030 -64.836700 -11.754300 -0.000006 -0.000006 -0.010833 0.277428 -5.300490
0.000000 0.000000 0.000000 0.000000 0.000000 -0.000000 -0.213087 93.349900 0.786875 88.556400 3.673980 -1.294480 15.735700 0.000005 -0.000001 56.865600 88.017100 -51.048900 8.984550 -0.406207 -0.000000 -4.279790 -2.776400 11.538500 16.377300 -0.000001 -0.000001 -2.413060 -0.433543 5.858370 6.456720 -0.000001 -0.000000 2.823280 0.045387 20.522900 12.994200 -0.242716 4.980390 -88.355500 -3.192050 -62.724300 5.348090 -0.000007 -0.000001 -38.026500 -50.195700 -77.959700 24.328600 0.000019 0.000005 0.067232 20.254600 -0.193820 22.291600 -0.000001 0.000005 24.654900 4.346790 19.078000 12.994500 -0.242716 -4.980390 89.028100 2.941150 -71.704100 -5.348130 -0.000001 -0.000004 -67.325500 1.846180 -2.345440 -24.328900 0.000322 -0.000009 0.171959 0.696798 -13.944300 -22.291500 -0.000108 -0.000004 8.033510 5.218370 2.254550 -2.192480 -6.469440 -0.000000 -174.102000 -2.747110 -1.221310 39.081100 -0.000007 -0.000012 0.018518 -0.089162 11.733500 40.985400 -0.000006 -0.000013 -1.109880 13.370000 -68.024500 11.754300 -0.000000 0.000003 -0.000235 0.171485 -9.621270 -2.192510 6.469440 -0.000001 176.842000 8.633010 -177.704000 -39.081100 -0.002282 -0.040193 0.000610 0.022495 6.929680 -40.985400 0.000008 0.000006 -9.002070 4.529240 -64.833400 -11.754300 -0.000006 -0.000006 -0.010503 0.275024 -5.398850
